<?xml version="1.0" standalone="no"?>
<!DOCTYPE svg PUBLIC "-//W3C//DTD SVG 20010904//EN"
 "http://www.w3.org/TR/2001/REC-SVG-20010904/DTD/svg10.dtd">
<svg version="1.0" xmlns="http://www.w3.org/2000/svg"
 width="568.000000pt" height="568.000000pt" viewBox="0 0 568.000000 568.000000"
 preserveAspectRatio="xMidYMid meet">
<metadata>
Created by potrace 1.11, written by Peter Selinger 2001-2013
</metadata>
<g transform="translate(0.000000,568.000000) scale(0.100000,-0.100000)"
fill="#000000" stroke="none">
<path d="M1279 5439 c-82 -12 -143 -56 -185 -131 l-29 -53 0 -1075 c-1 -681 3
-1088 9 -1110 5 -19 22 -52 36 -72 112 -157 343 -141 427 30 l28 57 -1 1080
c0 1073 0 1080 -21 1125 -50 109 -151 166 -264 149z"/>
<path d="M3095 5403 c-146 -32 -225 -182 -170 -321 21 -51 94 -118 144 -132
21 -6 185 -10 396 -10 l360 0 1 -927 c0 -913 1 -929 21 -973 26 -58 68 -101
127 -130 40 -19 59 -22 115 -18 75 6 98 16 158 72 80 74 76 21 76 1058 l0 918
356 1 c196 0 366 2 379 5 34 6 83 33 115 63 101 92 93 261 -16 344 -78 59 -19
56 -1075 55 -532 0 -976 -2 -987 -5z"/>
<path d="M1441 2498 c-248 -26 -475 -135 -659 -317 -223 -218 -345 -519 -336
-827 2 -70 6 -107 20 -205 16 -115 120 -342 211 -462 235 -308 620 -477 993
-435 112 12 142 19 249 54 173 57 297 132 425 258 77 75 116 137 116 183 0
115 -107 223 -221 223 -53 0 -86 -19 -188 -108 -181 -160 -304 -213 -486 -213
-126 1 -209 22 -320 79 -82 43 -203 159 -252 242 -66 112 -104 256 -105 398
-2 172 36 310 124 448 57 89 197 201 303 242 99 38 297 56 373 33 18 -5 33 -9
35 -9 1 1 20 -5 42 -12 50 -17 143 -65 251 -131 77 -47 91 -53 143 -53 137 0
234 130 191 258 -14 43 -101 140 -162 182 -24 16 -45 32 -48 35 -8 11 -132 65
-185 82 -163 52 -352 72 -514 55z"/>
<path d="M3990 2503 c-457 -34 -831 -324 -985 -764 -13 -38 -22 -69 -20 -69 3
0 1 -10 -4 -23 -17 -44 -25 -131 -26 -267 0 -139 5 -197 25 -271 7 -24 14 -51
15 -59 24 -110 130 -308 219 -408 179 -204 384 -324 641 -377 83 -17 284 -23
365 -11 361 55 673 275 834 588 78 153 106 251 124 433 21 211 -16 414 -112
610 -145 295 -401 504 -716 585 -102 26 -258 40 -360 33z m231 -417 c404 -84
631 -542 484 -977 -95 -283 -339 -459 -635 -459 -345 0 -605 227 -671 585 -10
58 -13 203 -5 255 50 318 237 533 516 595 82 18 226 18 311 1z"/>
</g>
</svg>
